<svg xmlns="http://www.w3.org/2000/svg" xmlns:xlink="http://www.w3.org/1999/xlink" width="48" height="48" viewBox="0 0 48 48">
  <defs>
    <clipPath id="clip-icon_cities">
      <rect width="48" height="48"/>
    </clipPath>
  </defs>
  <g id="icon_cities" clip-path="url(#clip-icon_cities)">
    <g id="icon_cities-2" data-name="icon_cities">
      <rect id="box" width="48" height="48" fill="none"/>
      <g id="Ellipse_2" data-name="Ellipse 2" transform="translate(0 33)" fill="none" stroke="#152c5b" stroke-width="3">
        <ellipse cx="16" cy="7.5" rx="16" ry="7.5" stroke="none"/>
        <ellipse cx="16" cy="7.5" rx="14.5" ry="6" fill="none"/>
      </g>
      <g id="Path_4" data-name="Path 4" transform="translate(2)" fill="#fff">
        <path d="M 14 40 C 12.3302698135376 40 10.74201011657715 38.51227951049805 9.703660011291504 37.26424026489258 C 8.247190475463867 35.51364898681641 6.787489891052246 32.95466995239258 5.482349872589111 29.86395072937012 C 2.867909908294678 23.67260932922363 1.5 17.05316925048828 1.5 13.714280128479 C 1.5 10.45757961273193 2.796319961547852 7.394169807434082 5.150169849395752 5.088359832763672 C 7.512370109558105 2.774369955062866 10.65530014038086 1.5 14 1.5 C 17.34469985961914 1.5 20.48763084411621 2.774369955062866 22.84983062744141 5.088359832763672 C 25.20368003845215 7.394169807434082 26.5 10.45757961273193 26.5 13.714280128479 C 26.5 17.05316925048828 25.13208961486816 23.67260932922363 22.51765060424805 29.86395072937012 C 21.21250915527344 32.95466995239258 19.75280952453613 35.51364898681641 18.29634094238281 37.26424026489258 C 17.25798988342285 38.51227951049805 15.6697301864624 40 14 40 Z" stroke="none"/>
        <path d="M 14 3 C 7.934579849243164 3 3 7.806411743164063 3 13.71427917480469 C 3 16.8242301940918 4.35430908203125 23.33667945861816 6.864200592041016 29.28042984008789 C 9.553579330444336 35.64923095703125 12.38597965240479 38.5 14 38.5 C 15.61402034759521 38.5 18.4464111328125 35.64923095703125 21.13579940795898 29.28042984008789 C 23.64569091796875 23.33667945861816 25 16.82422065734863 25 13.71427917480469 C 25 7.806411743164063 20.06542015075684 3 14 3 M 14 0 C 21.73197937011719 0 28 6.140090942382813 28 13.71427917480469 C 28 21.28848075866699 21.73197937011719 41.5 14 41.5 C 6.268009185791016 41.5 0 21.28848075866699 0 13.71427917480469 C 0 6.140090942382813 6.268009185791016 0 14 0 Z" stroke="none" fill="#152c5b"/>
      </g>
      <g id="Ellipse_1" data-name="Ellipse 1" transform="translate(10 8)" fill="#fff" stroke="#3252df" stroke-width="3">
        <circle cx="6" cy="6" r="6" stroke="none"/>
        <circle cx="6" cy="6" r="4.5" fill="none"/>
      </g>
    </g>
  </g>
</svg>
