<svg xmlns="http://www.w3.org/2000/svg" xmlns:xlink="http://www.w3.org/1999/xlink" width="48" height="48" viewBox="0 0 48 48">
  <defs>
    <clipPath id="clip-icon_treasure">
      <rect width="48" height="48"/>
    </clipPath>
  </defs>
  <g id="icon_treasure" clip-path="url(#clip-icon_treasure)">
    <g id="icon_treasure-2" data-name="icon_treasure">
      <rect id="box" width="48" height="48" fill="none"/>
      <g id="Union_1" data-name="Union 1" transform="translate(156 -84)" fill="none">
        <path d="M-148,128a8,8,0,0,1-8-8V106a8,8,0,0,1,8-8h7.4l1.6-4h14l1.6,4h7.4a8,8,0,0,1,8,8v14a8,8,0,0,1-8,8Z" stroke="none"/>
        <path d="M -116.0000991821289 124.9998016357422 C -113.243034362793 124.9998016357422 -111 122.7567596435547 -111 119.9997024536133 L -111 106.0002059936523 C -111 103.2431411743164 -113.243034362793 101.0000991821289 -116.0000991821289 101.0000991821289 L -123.3998336791992 101.0000991821289 L -125.430908203125 101.0000991821289 L -126.1852493286133 99.11431121826172 L -127.0311660766602 96.99960327148438 L -136.9685363769531 96.99960327148438 L -137.814453125 99.11431121826172 L -138.5688018798828 101.0000991821289 L -140.5998687744141 101.0000991821289 L -147.9996032714844 101.0000991821289 C -150.7566680908203 101.0000991821289 -152.9997100830078 103.2431411743164 -152.9997100830078 106.0002059936523 L -152.9997100830078 119.9997024536133 C -152.9997100830078 122.7567596435547 -150.7566680908203 124.9998016357422 -147.9996032714844 124.9998016357422 L -116.0000991821289 124.9998016357422 M -116.0000991821289 127.9998016357422 L -147.9996032714844 127.9998016357422 C -152.4186096191406 127.9998016357422 -155.9997100830078 124.418701171875 -155.9997100830078 119.9997024536133 L -155.9997100830078 106.0002059936523 C -155.9997100830078 101.5820999145508 -152.4186096191406 98.00009918212891 -147.9996032714844 98.00009918212891 L -140.5998687744141 98.00009918212891 L -138.9996032714844 93.99960327148438 L -125.0001068115234 93.99960327148438 L -123.3998336791992 98.00009918212891 L -116.0000991821289 98.00009918212891 C -111.5820007324219 98.00009918212891 -108 101.5820999145508 -108 106.0002059936523 L -108 119.9997024536133 C -108 124.418701171875 -111.5820007324219 127.9998016357422 -116.0000991821289 127.9998016357422 Z" stroke="none" fill="#152c5b"/>
      </g>
      <g id="Ellipse_1" data-name="Ellipse 1" transform="translate(16 21)" fill="none" stroke="#3252df" stroke-width="3">
        <circle cx="8" cy="8" r="8" stroke="none"/>
        <circle cx="8" cy="8" r="6.5" fill="none"/>
      </g>
      <path id="Path_3" data-name="Path 3" d="M17-69.068c-.015-6.054,0-6,0-6" transform="translate(-34.097 3.494) rotate(90)" fill="none" stroke="#152c5b" stroke-linecap="round" stroke-width="3"/>
    </g>
  </g>
</svg>
